<svg width="14" height="14" viewBox="0 0 14 14" fill="none" xmlns="http://www.w3.org/2000/svg">
<rect width="14" height="4" rx="2" fill="#86888D"/>
<path d="M12 4.99998C13.1046 4.99998 14 5.89542 14 6.99998C14 8.10455 13.1046 8.99998 12 8.99998H6.99999C5.89542 8.99998 4.99999 8.10455 4.99999 6.99998C4.99999 5.89542 5.89542 4.99998 6.99999 4.99998H12ZM5.99999 6.99998C5.99999 7.55227 6.44771 7.99998 6.99999 7.99998H12C12.5523 7.99998 13 7.55227 13 6.99998C13 6.4477 12.5523 5.99998 12 5.99998H6.99999C6.44771 5.99998 5.99999 6.4477 5.99999 6.99998Z" fill="#ACADAF"/>
<rect x="4" y="4.99998" width="9" height="4" rx="2" transform="rotate(90 4 4.99998)" fill="#ACADAF"/>
<path d="M4.99999 12C4.99999 10.8954 5.89542 10 6.99999 10H12C13.1046 10 14 10.8954 14 12C14 13.1046 13.1046 14 12 14H6.99999C5.89542 14 4.99999 13.1046 4.99999 12Z" fill="#ACADAF"/>
</svg>
