<svg width="14" height="14" viewBox="0 0 14 14" fill="none" xmlns="http://www.w3.org/2000/svg">
<rect width="14" height="14" rx="7" fill="white"/>
<rect x="3" y="3" width="8" height="2.28571" rx="1.14286" fill="#111722"/>
<path d="M9.85714 5.85713C10.4883 5.85713 11 6.36881 11 6.99999C11 7.63117 10.4883 8.14285 9.85714 8.14285H7C6.36881 8.14285 5.85714 7.63117 5.85714 6.99999C5.85714 6.36881 6.36881 5.85713 7 5.85713H9.85714ZM6.42857 6.99999C6.42857 7.31558 6.68441 7.57142 7 7.57142H9.85714C10.1727 7.57142 10.4286 7.31558 10.4286 6.99999C10.4286 6.6844 10.1727 6.42856 9.85714 6.42856H7C6.68441 6.42856 6.42857 6.6844 6.42857 6.99999Z" fill="#111722"/>
<rect x="5.28571" y="5.85713" width="5.14286" height="2.28571" rx="1.14286" transform="rotate(90 5.28571 5.85713)" fill="#111722"/>
<path d="M5.85714 9.85715C5.85714 9.22597 6.36881 8.71429 7 8.71429H9.85714C10.4883 8.71429 11 9.22597 11 9.85715C11 10.4883 10.4883 11 9.85714 11H7C6.36881 11 5.85714 10.4883 5.85714 9.85715Z" fill="#111722"/>
</svg>
